<svg width="54" height="54" xmlns="http://www.w3.org/2000/svg"><g fill="none"><path fill="#F7DF1E" d="M0 0h54v54H0z"/><path d="M36.312 42.496c1.1 1.757 2.531 3.048 5.063 3.048 2.127 0 3.486-1.04 3.486-2.476 0-1.722-1.396-2.331-3.737-3.333l-1.283-.538c-3.705-1.544-6.165-3.478-6.165-7.565 0-3.766 2.933-6.632 7.517-6.632 3.264 0 5.61 1.111 7.3 4.02l-3.996 2.51c-.88-1.543-1.83-2.151-3.304-2.151-1.503 0-2.456.932-2.456 2.151 0 1.506.954 2.116 3.156 3.049l1.283.538C47.538 36.946 50 38.81 50 43.003 50 47.523 46.37 50 41.494 50c-4.767 0-7.847-2.222-9.354-5.134l4.172-2.37zm-18.134.435c.807 1.399 1.54 2.582 3.304 2.582 1.686 0 2.75-.645 2.75-3.155V25.287h5.133v17.139c0 5.199-3.116 7.565-7.665 7.565-4.11 0-6.49-2.08-7.7-4.586l4.178-2.474z" fill="#000"/></g></svg>