<?xml version="1.0" encoding="utf-8"?>
<!-- Generator: Adobe Illustrator 15.1.0, SVG Export Plug-In . SVG Version: 6.00 Build 0)  -->
<!DOCTYPE svg PUBLIC "-//W3C//DTD SVG 1.1//EN" "http://www.w3.org/Graphics/SVG/1.1/DTD/svg11.dtd">
<svg version="1.1" id="Warstwa_1" xmlns="http://www.w3.org/2000/svg" xmlns:xlink="http://www.w3.org/1999/xlink" x="0px" y="0px"
	 width="32px" height="32px" viewBox="0 0 32 32" enable-background="new 0 0 32 32" xml:space="preserve">
<g>
	<path fill="#E23237" d="M1.855,5.972L15.813,1l14.332,4.884l-2.32,18.464L15.813,31L3.988,24.438L1.855,5.972z"/>
	<path fill="#B52E31" d="M30.145,5.884L15.813,1v30l12.011-6.641L30.145,5.884L30.145,5.884z"/>
	<path fill="#FFFFFF" d="M15.834,4.503L15.834,4.503L7.139,23.852l3.248-0.056l1.746-4.365h3.713h0.01h4.078l1.912,4.421
		l3.104,0.056L15.834,4.503L15.834,4.503z M15.855,10.702l2.939,6.144h-2.818h-0.144H13.27L15.855,10.702L15.855,10.702z"/>
</g>
</svg>
