<svg width="39" height="30" xmlns="http://www.w3.org/2000/svg"><path d="M17.894 28.414c4.976-.875 9.079-1.607 9.12-1.607l.08-.02-4.691-5.594c-2.58-3.071-4.692-5.593-4.692-5.613 0-.02 4.854-13.383 4.875-13.445 0-.02 3.31 5.675 7.982 13.81 4.387 7.608 8.002 13.892 8.043 13.953l.06.102H8.856l9.039-1.586zM0 26.705s2.214-3.844 4.915-8.542L9.83 9.64l5.728-4.82C18.706 2.175 21.286 0 21.306 0c.02 0-.04.102-.102.224-.06.122-2.863 6.142-6.215 13.342L8.876 26.685H4.428c-2.438.04-4.428.02-4.428.02z" fill="#0089D6"/></svg>