<svg width="104" height="37" xmlns="http://www.w3.org/2000/svg"><g fill="#2BA977"><path d="M12.224 0h5.67v26.245c-2.908.553-5.044.774-7.364.774-6.922 0-10.53-3.13-10.53-9.132 0-5.78 3.83-9.535 9.757-9.535.92 0 1.62.073 2.467.294V0zm0 13.211c-.663-.22-1.215-.294-1.915-.294-2.871 0-4.528 1.767-4.528 4.86 0 3.019 1.583 4.676 4.492 4.676.625 0 1.141-.037 1.951-.147V13.21z"/><path d="M26.914 8.756V21.9c0 4.53-.331 6.702-1.325 8.58-.92 1.804-2.136 2.945-4.64 4.197l-5.265-2.504c2.504-1.178 3.719-2.209 4.492-3.793.81-1.62 1.068-3.497 1.068-8.431V8.756h5.67zM21.244.03h5.67v5.818h-5.67V.03zm9.095 10.015c2.504-1.178 4.897-1.693 7.511-1.693 2.909 0 4.823.772 5.67 2.282.479.847.626 1.951.626 4.308v11.524c-2.54.368-5.744.626-8.1.626-4.75 0-6.885-1.657-6.885-5.339 0-3.977 2.835-5.818 9.793-6.407v-1.252c0-1.03-.515-1.398-1.951-1.398-2.099 0-4.455.589-6.664 1.73v-4.381zm8.874 9.02c-3.756.369-4.971.958-4.971 2.43 0 1.105.7 1.62 2.246 1.62.847 0 1.62-.073 2.724-.257v-3.793zm7.695-9.425c3.35-.884 6.111-1.288 8.91-1.288 2.908 0 5.007.662 6.26 1.95 1.177 1.215 1.545 2.54 1.545 5.376v11.12h-5.67v-10.9c0-2.172-.736-2.982-2.761-2.982-.773 0-1.473.073-2.614.405v13.475h-5.67V9.64zm18.92 20.25c1.988 1.031 3.976 1.51 6.075 1.51 3.718 0 5.301-1.51 5.301-5.118v-.11c-1.104.551-2.21.772-3.682.772-4.97 0-8.137-3.277-8.137-8.468 0-6.443 4.676-10.088 12.96-10.088 2.43 0 4.676.257 7.4.81l-1.94 4.09c-1.51-.295-.122-.04-1.262-.15v.589l.073 2.393.037 3.093c.036.773.036 1.546.073 2.32v1.546c0 4.86-.404 7.142-1.62 9.02-1.767 2.762-4.823 4.124-9.167 4.124-2.21 0-4.123-.331-6.112-1.105V29.89zm11.266-16.936h-.589c-1.104-.037-2.393.257-3.277.81-1.362.773-2.062 2.172-2.062 4.16 0 2.835 1.4 4.455 3.903 4.455.774 0 1.4-.147 2.136-.368V20.06c0-.663-.037-1.4-.037-2.173l-.036-2.614-.037-1.877v-.442zM94.55 8.278c5.67 0 9.13 3.571 9.13 9.352 0 5.928-3.607 9.646-9.351 9.646-5.67 0-9.169-3.571-9.169-9.315 0-5.965 3.61-9.683 9.39-9.683zm-.111 14.432c2.172 0 3.46-1.804 3.46-4.933 0-3.093-1.251-4.934-3.423-4.934-2.246 0-3.535 1.805-3.535 4.934 0 3.13 1.289 4.933 3.498 4.933z"/></g></svg>