<svg xmlns="http://www.w3.org/2000/svg" version="1.1" id="Layer_1" x="0" y="0" viewBox="0 0 90.63 122.88" xml:space="preserve"><style>.st0,.st1{fill-rule:evenodd;clip-rule:evenodd;fill:#5382a1}.st1{fill:#e76f00}</style><path class="st0" d="M29.19 95.03s-4.7 2.73 3.34 3.65c9.74 1.11 14.71.95 25.44-1.08 0 0 2.82 1.77 6.76 3.3-24.05 10.32-54.44-.59-35.54-5.87zm-2.94-13.45s-5.27 3.9 2.78 4.73c10.4 1.07 18.62 1.16 32.83-1.58 0 0 1.97 1.99 5.06 3.08-29.09 8.51-61.49.67-40.67-6.23z"/><path class="st1" d="M51.03 58.76c5.93 6.82-1.56 12.96-1.56 12.96s15.05-7.77 8.14-17.5C51.15 45.15 46.2 40.64 73 25.1c0 0-42.06 10.5-21.97 33.66z"/><path class="st0" d="M82.84 104.98s3.47 2.86-3.83 5.08c-13.88 4.21-57.79 5.48-69.99.17-4.38-1.91 3.84-4.55 6.42-5.11 2.7-.59 4.24-.48 4.24-.48-4.88-3.43-31.52 6.74-13.53 9.66 49.05 7.95 89.41-3.58 76.69-9.32zM31.45 67.64s-22.33 5.3-7.91 7.23c6.09.82 18.23.63 29.54-.32 9.24-.78 18.52-2.44 18.52-2.44s-3.26 1.4-5.62 3.01C43.3 81.08-.51 78.31 12.1 72.21c10.67-5.16 19.35-4.57 19.35-4.57zm40.06 22.39c23.05-11.98 12.39-23.49 4.95-21.94-1.82.38-2.64.71-2.64.71s.68-1.06 1.97-1.52c14.72-5.17 26.04 15.26-4.75 23.36.01 0 .36-.32.47-.61z"/><path class="st1" d="M57.61 0S70.38 12.77 45.5 32.41c-19.95 15.75-4.55 24.74-.01 35-11.64-10.5-20.19-19.75-14.46-28.36C39.45 26.41 62.76 20.29 57.61 0z"/><path class="st0" d="M33.71 122.49c22.13 1.42 56.11-.79 56.92-11.26 0 0-1.55 3.97-18.29 7.12-18.89 3.55-42.18 3.14-56 .86 0 .01 2.83 2.35 17.37 3.28z"/></svg>