<?xml version="1.0" encoding="utf-8"?>
<!-- Generator: Adobe Illustrator 15.1.0, SVG Export Plug-In . SVG Version: 6.00 Build 0)  -->
<!DOCTYPE svg PUBLIC "-//W3C//DTD SVG 1.1//EN" "http://www.w3.org/Graphics/SVG/1.1/DTD/svg11.dtd">
<svg version="1.1" id="Warstwa_1" xmlns="http://www.w3.org/2000/svg" xmlns:xlink="http://www.w3.org/1999/xlink" x="0px" y="0px"
	 width="32px" height="32px" viewBox="0 0 32 32" enable-background="new 0 0 32 32" xml:space="preserve">
<g>
	<path fill="#006189" d="M1.002,22.404h0.99v-3.923l1.546,3.42c0.175,0.41,0.427,0.563,0.914,0.563s0.725-0.152,0.906-0.563
		l1.537-3.42v3.923h0.998v-3.923c0-0.381-0.151-0.563-0.472-0.662c-0.754-0.229-1.256-0.03-1.485,0.479l-1.516,3.383l-1.463-3.383
		c-0.221-0.51-0.73-0.707-1.492-0.479c-0.313,0.099-0.465,0.281-0.465,0.662L1.002,22.404L1.002,22.404z"/>
	<path fill="#006189" d="M8.717,19.213h0.998v2.156c-0.008,0.121,0.038,0.396,0.579,0.401c0.282,0.009,2.146,0,2.163,0v-2.573h0.997
		c0,0,0,3.512,0,3.526c0,0.867-1.073,1.06-1.576,1.066H8.739v-0.662c0.008,0,3.139,0,3.146,0c0.64-0.07,0.563-0.39,0.563-0.496
		v-0.261h-2.109c-0.982-0.006-1.615-0.44-1.622-0.936C8.717,21.39,8.739,19.228,8.717,19.213L8.717,19.213z"/>
	<path fill="#006189" d="M30.118,16.715c-0.609-0.016-1.081,0.047-1.479,0.213c-0.113,0.047-0.297,0.047-0.313,0.191
		c0.063,0.061,0.068,0.159,0.122,0.243c0.092,0.152,0.251,0.357,0.396,0.463c0.16,0.123,0.319,0.244,0.487,0.353
		c0.297,0.182,0.632,0.289,0.922,0.473c0.167,0.105,0.335,0.242,0.502,0.357c0.084,0.061,0.138,0.159,0.244,0.196
		c0-0.008,0-0.016,0-0.022c-0.054-0.068-0.067-0.166-0.122-0.242c-0.076-0.076-0.152-0.145-0.229-0.221
		c-0.222-0.297-0.496-0.557-0.793-0.771c-0.244-0.168-0.776-0.396-0.875-0.678c0,0-0.008-0.008-0.016-0.017
		c0.167-0.016,0.365-0.075,0.525-0.121c0.258-0.069,0.494-0.055,0.762-0.123c0.121-0.03,0.243-0.067,0.365-0.104
		c0-0.022,0-0.047,0-0.07c-0.137-0.137-0.236-0.317-0.381-0.448c-0.389-0.336-0.814-0.662-1.257-0.938
		c-0.235-0.152-0.54-0.251-0.792-0.381c-0.091-0.046-0.243-0.068-0.297-0.146c-0.137-0.168-0.213-0.389-0.313-0.587
		c-0.222-0.419-0.435-0.884-0.625-1.324c-0.138-0.298-0.221-0.595-0.389-0.868c-0.784-1.295-1.639-2.079-2.947-2.85
		c-0.281-0.159-0.617-0.229-0.975-0.312c-0.189-0.008-0.381-0.023-0.57-0.031c-0.123-0.053-0.244-0.197-0.352-0.268
		c-0.436-0.272-1.555-0.867-1.874-0.082c-0.205,0.493,0.306,0.981,0.479,1.232c0.129,0.175,0.297,0.373,0.39,0.571
		c0.054,0.129,0.067,0.267,0.121,0.403c0.122,0.334,0.235,0.707,0.396,1.021c0.084,0.16,0.176,0.328,0.281,0.473
		c0.063,0.084,0.168,0.122,0.191,0.259c-0.107,0.152-0.115,0.382-0.176,0.571c-0.273,0.86-0.168,1.927,0.221,2.56
		c0.122,0.189,0.412,0.608,0.8,0.449c0.343-0.138,0.267-0.57,0.366-0.951c0.021-0.092,0.008-0.152,0.053-0.215
		c0,0.009,0,0.017,0,0.017c0.107,0.213,0.213,0.419,0.313,0.632c0.235,0.373,0.647,0.762,0.99,1.021
		c0.183,0.137,0.327,0.373,0.556,0.457c0-0.008,0-0.017,0-0.023c-0.008,0-0.008,0-0.015,0c-0.047-0.068-0.115-0.1-0.176-0.152
		c-0.138-0.137-0.289-0.305-0.396-0.457c-0.319-0.427-0.603-0.897-0.854-1.387c-0.122-0.234-0.229-0.494-0.327-0.729
		c-0.046-0.093-0.046-0.229-0.122-0.274c-0.113,0.168-0.282,0.313-0.365,0.52c-0.146,0.326-0.16,0.729-0.214,1.148
		c-0.03,0.008-0.015,0-0.03,0.017c-0.242-0.063-0.326-0.313-0.418-0.526c-0.229-0.54-0.268-1.408-0.068-2.033
		c0.053-0.159,0.281-0.662,0.189-0.813c-0.045-0.146-0.197-0.229-0.281-0.343c-0.1-0.146-0.205-0.328-0.273-0.488
		c-0.184-0.426-0.273-0.898-0.473-1.325c-0.092-0.196-0.252-0.403-0.381-0.586c-0.146-0.206-0.306-0.351-0.42-0.594
		c-0.037-0.084-0.09-0.222-0.029-0.313c0.016-0.061,0.046-0.084,0.105-0.1c0.1-0.083,0.381,0.023,0.479,0.069
		c0.282,0.114,0.519,0.221,0.754,0.381c0.106,0.076,0.222,0.221,0.358,0.259c0.054,0,0.105,0,0.16,0
		c0.242,0.053,0.518,0.016,0.746,0.084c0.402,0.129,0.77,0.319,1.097,0.525c0.998,0.632,1.819,1.529,2.377,2.604
		c0.091,0.176,0.129,0.335,0.213,0.519c0.16,0.373,0.356,0.754,0.519,1.12c0.16,0.356,0.313,0.724,0.541,1.021
		c0.113,0.16,0.57,0.243,0.776,0.327c0.151,0.068,0.388,0.13,0.524,0.213c0.26,0.16,0.519,0.343,0.763,0.52
		C29.714,16.372,30.095,16.562,30.118,16.715L30.118,16.715z"/>
	<path fill="#006189" d="M22.349,10.097c-0.129,0-0.221,0.015-0.312,0.038c0,0,0,0.008,0,0.015c0.007,0,0.007,0,0.015,0
		c0.063,0.122,0.168,0.206,0.244,0.313c0.062,0.122,0.114,0.242,0.176,0.365c0.008-0.009,0.016-0.016,0.016-0.016
		c0.105-0.076,0.159-0.197,0.159-0.381c-0.045-0.054-0.054-0.107-0.091-0.16C22.509,10.195,22.411,10.156,22.349,10.097
		L22.349,10.097z"/>
	<path fill="#E38F00" d="M14.215,22.404h2.864c0.334,0,0.653-0.068,0.912-0.189c0.436-0.199,0.641-0.465,0.641-0.816v-0.729
		c0-0.281-0.234-0.549-0.708-0.729c-0.243-0.093-0.548-0.146-0.845-0.146h-1.205c-0.402,0-0.594-0.123-0.646-0.389
		c-0.008-0.031-0.008-0.062-0.008-0.093v-0.448c0-0.023,0-0.054,0.008-0.084c0.053-0.205,0.16-0.261,0.51-0.298
		c0.029,0,0.068,0,0.091,0h2.841V17.82h-2.788c-0.403,0-0.617,0.021-0.808,0.084c-0.586,0.183-0.845,0.472-0.845,0.98v0.58
		c0,0.449,0.502,0.83,1.354,0.922c0.092,0.008,0.19,0.008,0.289,0.008H16.9c0.038,0,0.076,0,0.106,0.009
		c0.313,0.028,0.449,0.084,0.541,0.196c0.061,0.062,0.076,0.113,0.076,0.185v0.578c0,0.067-0.047,0.159-0.139,0.235
		c-0.091,0.076-0.234,0.129-0.426,0.138c-0.038,0-0.063,0.008-0.1,0.008h-2.75v0.661H14.215z"/>
	<path fill="#E38F00" d="M24.833,21.254c0,0.678,0.51,1.059,1.529,1.135c0.101,0.008,0.19,0.016,0.291,0.016h2.588v-0.662H26.63
		c-0.579,0-0.8-0.145-0.8-0.496V17.82h-0.997V21.254L24.833,21.254z"/>
	<path fill="#E38F00" d="M19.265,21.285v-2.361c0-0.603,0.426-0.967,1.258-1.082c0.09-0.008,0.183-0.014,0.267-0.014h1.89
		c0.099,0,0.183,0.006,0.28,0.014c0.83,0.115,1.25,0.479,1.25,1.082v2.361c0,0.485-0.176,0.746-0.587,0.922l0.975,0.883h-1.148
		l-0.793-0.715l-0.799,0.045H20.79c-0.176,0-0.373-0.023-0.578-0.076C19.578,22.168,19.265,21.834,19.265,21.285L19.265,21.285z
		 M20.338,21.231c0,0.029,0.017,0.062,0.022,0.099c0.054,0.274,0.313,0.428,0.709,0.428h0.897l-0.821-0.746h1.149l0.724,0.654
		c0.138-0.076,0.222-0.185,0.252-0.32c0.008-0.031,0.008-0.068,0.008-0.101v-2.262c0-0.029,0-0.062-0.008-0.09
		c-0.054-0.261-0.313-0.404-0.701-0.404h-1.5c-0.441,0-0.731,0.188-0.731,0.494V21.231L20.338,21.231z"/>
	<path fill="#E38F00" d="M29.698,22.412h0.146v-0.557h0.189v-0.113h-0.533v0.113h0.197V22.412L29.698,22.412z M30.803,22.412h0.138
		v-0.67h-0.205l-0.168,0.457l-0.184-0.457h-0.198v0.67h0.13v-0.51h0.008l0.189,0.51h0.1l0.189-0.51l0,0L30.803,22.412L30.803,22.412
		z"/>
</g>
</svg>
