<?xml version="1.0" encoding="utf-8"?>
<!-- Generator: Adobe Illustrator 15.1.0, SVG Export Plug-In . SVG Version: 6.00 Build 0)  -->
<!DOCTYPE svg PUBLIC "-//W3C//DTD SVG 1.1//EN" "http://www.w3.org/Graphics/SVG/1.1/DTD/svg11.dtd">
<svg version="1.1" id="Warstwa_1" xmlns="http://www.w3.org/2000/svg" xmlns:xlink="http://www.w3.org/1999/xlink" x="0px" y="0px"
	 width="32px" height="32px" viewBox="0 0 32 32" enable-background="new 0 0 32 32" xml:space="preserve">
<g>
	<path fill="#3C5AFD" d="M28.803,3.197C30.214,4.607,30.947,6.376,31,8.5v15c-0.055,2.124-0.786,3.893-2.197,5.303
		c-1.41,1.411-3.179,2.145-5.303,2.197h-15c-2.124-0.054-3.893-0.786-5.303-2.197C1.786,27.393,1.055,25.624,1,23.5v-15
		c0.055-2.124,0.787-3.893,2.197-5.303C4.607,1.786,6.376,1.053,8.5,1h15C25.624,1.054,27.393,1.786,28.803,3.197L28.803,3.197
		L28.803,3.197z M26.734,15.268c-0.473-0.469-0.717-1.057-0.736-1.765V8.5c-0.016-0.708-0.258-1.298-0.729-1.77
		c-0.472-0.472-1.062-0.713-1.77-0.729h-2.497v12.496L10.998,6.002H8.5C7.792,6.018,7.203,6.259,6.73,6.73
		C6.26,7.202,6.018,7.792,6.002,8.5v5.002c-0.02,0.708-0.266,1.296-0.736,1.766c-0.471,0.469-1.061,0.713-1.769,0.731
		c0.708,0.021,1.297,0.264,1.769,0.731c0.473,0.469,0.717,1.059,0.736,1.767v5.002c0.016,0.708,0.258,1.298,0.729,1.769
		c0.472,0.473,1.062,0.715,1.77,0.729h2.498V13.501l10.005,12.496H23.5c0.708-0.017,1.298-0.258,1.77-0.729
		c0.472-0.471,0.715-1.061,0.729-1.769v-5.002c0.02-0.708,0.266-1.297,0.736-1.767c0.471-0.469,1.061-0.713,1.768-0.731
		C27.795,15.98,27.205,15.736,26.734,15.268L26.734,15.268L26.734,15.268z"/>
</g>
</svg>
