<?xml version="1.0" encoding="utf-8"?>
<!-- Generator: Adobe Illustrator 15.1.0, SVG Export Plug-In . SVG Version: 6.00 Build 0)  -->
<!DOCTYPE svg PUBLIC "-//W3C//DTD SVG 1.1//EN" "http://www.w3.org/Graphics/SVG/1.1/DTD/svg11.dtd">
<svg version="1.1" id="Layer_1" xmlns="http://www.w3.org/2000/svg" xmlns:xlink="http://www.w3.org/1999/xlink" x="0px" y="0px"
	 width="32px" height="32px" viewBox="0 0 32 32" enable-background="new 0 0 32 32" xml:space="preserve">
<g id="XMLID_4_">
	<rect id="XMLID_1_" x="1" y="1" fill="#672572" width="30" height="30"/>
	<g id="XMLID_2_">
		<path id="XMLID_3_" fill="#FFFFFF" d="M20.307,12.464c0.153-0.136,0.229-0.306,0.229-0.512c0-0.188-0.062-0.341-0.185-0.46
			c-0.095-0.096-0.248-0.188-0.463-0.278c-0.19-0.081-0.316-0.151-0.377-0.208c-0.066-0.063-0.102-0.148-0.102-0.26
			c0-0.104,0.041-0.188,0.121-0.253c0.079-0.064,0.188-0.097,0.318-0.097c0.215,0,0.404,0.059,0.569,0.179V10.17
			c-0.158-0.078-0.337-0.117-0.536-0.117c-0.262,0-0.473,0.069-0.639,0.208c-0.164,0.138-0.246,0.313-0.246,0.521
			c0,0.186,0.053,0.337,0.158,0.453c0.088,0.099,0.238,0.191,0.449,0.284c0.203,0.089,0.34,0.166,0.41,0.23
			c0.071,0.063,0.106,0.144,0.106,0.241c0,0.233-0.159,0.352-0.478,0.352c-0.238,0-0.457-0.081-0.653-0.24v0.432
			c0.179,0.103,0.386,0.151,0.623,0.151C19.907,12.684,20.139,12.609,20.307,12.464z"/>
		<path id="XMLID_29_" fill="#FFFFFF" d="M24.086,12.624h0.4v-2.17h0.589v-0.341h-0.589V9.727c0-0.354,0.141-0.531,0.421-0.531
			c0.101,0,0.188,0.021,0.269,0.065V8.897c-0.07-0.028-0.168-0.043-0.291-0.043c-0.215,0-0.396,0.067-0.543,0.203
			c-0.172,0.156-0.256,0.373-0.256,0.647v0.407h-0.428v0.341h0.428V12.624z"/>
		<path id="XMLID_30_" fill="#FFFFFF" d="M11.277,9.476c0.074,0,0.137-0.023,0.188-0.075c0.051-0.051,0.078-0.112,0.078-0.187
			s-0.026-0.135-0.078-0.187c-0.051-0.05-0.113-0.073-0.188-0.073c-0.072,0-0.134,0.023-0.186,0.073
			c-0.051,0.052-0.076,0.112-0.076,0.187c0,0.077,0.025,0.14,0.076,0.188C11.143,9.452,11.205,9.476,11.277,9.476z"/>
		<path id="XMLID_31_" fill="#FFFFFF" d="M13.289,12.684c0.266,0,0.495-0.059,0.688-0.177v-0.382
			c-0.191,0.144-0.396,0.216-0.617,0.216c-0.26,0-0.465-0.085-0.621-0.255c-0.154-0.171-0.231-0.4-0.231-0.693
			c0-0.304,0.085-0.548,0.253-0.729c0.161-0.179,0.369-0.268,0.625-0.268c0.212,0,0.411,0.064,0.598,0.196V10.18
			c-0.168-0.085-0.361-0.128-0.58-0.128c-0.398,0-0.717,0.127-0.953,0.38s-0.354,0.586-0.354,0.996c0,0.367,0.107,0.666,0.323,0.896
			C12.641,12.564,12.93,12.684,13.289,12.684z"/>
		<path id="XMLID_34_" fill="#FFFFFF" d="M27.575,10.313h0.078c0.056,0,0.104,0.052,0.151,0.153l0.092,0.204h0.146l-0.111-0.228
			c-0.047-0.093-0.095-0.146-0.142-0.156v-0.003c0.067-0.015,0.122-0.042,0.159-0.083c0.038-0.041,0.057-0.092,0.057-0.149
			c0-0.064-0.022-0.118-0.068-0.159c-0.055-0.049-0.135-0.071-0.242-0.071h-0.238v0.851h0.119L27.575,10.313L27.575,10.313z
			 M27.575,9.924h0.104c0.074,0,0.127,0.013,0.158,0.037c0.026,0.021,0.039,0.059,0.039,0.105c0,0.098-0.058,0.146-0.174,0.146
			h-0.129L27.575,9.924L27.575,9.924z"/>
		<path id="XMLID_35_" fill="#FFFFFF" d="M25.727,11.938c0,0.493,0.219,0.74,0.656,0.74c0.156,0,0.283-0.026,0.377-0.081v-0.343
			c-0.072,0.054-0.158,0.081-0.26,0.081c-0.133,0-0.229-0.035-0.285-0.107c-0.06-0.068-0.086-0.189-0.086-0.357v-1.417h0.631v-0.341
			h-0.631V9.371c-0.142,0.046-0.274,0.09-0.402,0.13v0.612h-0.432v0.341h0.432V11.938z"/>
		<path id="XMLID_40_" fill="#FFFFFF" d="M27.715,10.916c0.19,0,0.351-0.064,0.479-0.191c0.13-0.128,0.194-0.285,0.194-0.473
			c0-0.191-0.065-0.352-0.196-0.477c-0.127-0.121-0.284-0.185-0.472-0.185c-0.191,0-0.352,0.063-0.479,0.193
			c-0.128,0.129-0.192,0.284-0.192,0.472c0,0.189,0.063,0.348,0.189,0.473C27.364,10.853,27.524,10.916,27.715,10.916z
			 M27.295,9.835c0.112-0.113,0.254-0.169,0.424-0.169c0.164,0,0.305,0.056,0.418,0.168c0.114,0.111,0.172,0.254,0.172,0.421
			c0,0.169-0.058,0.311-0.172,0.423c-0.115,0.114-0.254,0.171-0.418,0.171s-0.304-0.057-0.418-0.169
			c-0.115-0.113-0.174-0.255-0.174-0.425C27.127,10.089,27.184,9.949,27.295,9.835z"/>
		<rect id="XMLID_41_" x="11.071" y="10.113" fill="#FFFFFF" width="0.401" height="2.511"/>
		<path id="XMLID_44_" fill="#FFFFFF" d="M17.295,12.684c0.381,0,0.687-0.121,0.912-0.363c0.226-0.24,0.338-0.562,0.338-0.961
			c0-0.406-0.104-0.728-0.313-0.959c-0.211-0.231-0.504-0.349-0.878-0.349c-0.38,0-0.684,0.111-0.911,0.333
			c-0.245,0.239-0.368,0.576-0.368,1.014c0,0.383,0.107,0.689,0.323,0.923C16.618,12.563,16.918,12.684,17.295,12.684z
			 M16.725,10.64c0.149-0.163,0.351-0.243,0.601-0.243c0.253,0,0.45,0.08,0.591,0.241c0.145,0.168,0.218,0.413,0.218,0.734
			c0,0.308-0.067,0.544-0.204,0.712c-0.139,0.171-0.341,0.257-0.604,0.257c-0.256,0-0.459-0.085-0.61-0.254
			s-0.228-0.404-0.228-0.705C16.487,11.063,16.566,10.816,16.725,10.64z"/>
		<path id="XMLID_47_" fill="#FFFFFF" d="M23.066,12.32c0.225-0.24,0.339-0.562,0.339-0.961c0-0.406-0.106-0.728-0.315-0.959
			s-0.502-0.349-0.875-0.349c-0.383,0-0.687,0.111-0.912,0.333c-0.244,0.239-0.367,0.576-0.367,1.014
			c0,0.383,0.106,0.689,0.322,0.923c0.221,0.241,0.521,0.362,0.897,0.362C22.536,12.684,22.84,12.563,23.066,12.32z M21.346,11.383
			c0-0.32,0.078-0.566,0.236-0.742c0.15-0.163,0.352-0.244,0.602-0.244c0.252,0,0.449,0.08,0.59,0.242
			c0.146,0.168,0.219,0.413,0.219,0.734c0,0.308-0.067,0.544-0.203,0.712c-0.14,0.171-0.342,0.257-0.605,0.257
			c-0.254,0-0.458-0.085-0.609-0.254C21.422,11.919,21.346,11.683,21.346,11.383z"/>
		<polygon id="XMLID_48_" fill="#FFFFFF" points="17.158,18.8 20.487,18.8 20.487,17.824 17.158,17.824 17.158,14.758 
			20.752,14.758 20.752,13.781 16.079,13.781 16.079,22.997 20.963,22.997 20.963,22.02 17.158,22.02 		"/>
		<polygon id="XMLID_49_" fill="#FFFFFF" points="21.978,14.758 24.637,14.758 24.637,22.997 25.717,22.997 25.717,14.758 
			28.37,14.758 28.37,13.781 21.978,13.781 		"/>
		<path id="XMLID_50_" fill="#FFFFFF" d="M4.318,21.693c-0.195,0-0.363,0.068-0.5,0.211c-0.139,0.142-0.206,0.313-0.206,0.515
			c0,0.196,0.067,0.366,0.206,0.511c0.137,0.145,0.305,0.216,0.5,0.216c0.202,0,0.374-0.071,0.516-0.216s0.211-0.314,0.211-0.511
			c0-0.197-0.069-0.367-0.211-0.511C4.691,21.763,4.52,21.693,4.318,21.693z"/>
		<path id="XMLID_51_" fill="#FFFFFF" d="M15.27,10.208c-0.122,0.1-0.213,0.239-0.271,0.424h-0.011v-0.519h-0.401v2.511h0.401v-1.28
			c0-0.291,0.063-0.52,0.188-0.684c0.11-0.146,0.248-0.221,0.412-0.221c0.133,0,0.235,0.026,0.307,0.081v-0.417
			c-0.055-0.021-0.134-0.033-0.24-0.033C15.512,10.07,15.383,10.115,15.27,10.208z"/>
		<polygon id="XMLID_52_" fill="#FFFFFF" points="6.997,9.583 7.006,9.583 8.313,12.624 8.514,12.624 9.817,9.583 9.826,9.583 
			9.793,12.624 10.204,12.624 10.204,9.109 9.688,9.109 8.418,11.98 8.401,11.98 7.163,9.109 6.619,9.109 6.619,12.624 
			7.018,12.624 		"/>
		<polygon id="XMLID_53_" fill="#FFFFFF" points="12.965,21.564 8.018,13.781 6.616,13.781 6.616,22.997 7.696,22.997 7.696,15.092 
			12.729,22.997 14.039,22.997 14.039,13.781 12.965,13.781 		"/>
	</g>
</g>
</svg>
