<svg xmlns="http://www.w3.org/2000/svg" width="18" height="21"><g fill="#83CD29"><path d="M9.19.843c-.263 0-.518.055-.744.183L1.298 5.154c-.463.266-.744.77-.744 1.305V14.7c0 .535.28 1.038.744 1.305l1.866 1.078c.907.447 1.242.44 1.654.44 1.343 0 2.11-.815 2.11-2.23V7.156c0-.115-.1-.197-.212-.197H5.82c-.115 0-.212.082-.212.197v8.135c0 .628-.654 1.259-1.715.728L1.95 14.882c-.069-.037-.121-.103-.121-.182V6.46a.24.24 0 01.121-.197L9.083 2.15a.21.21 0 01.213 0l7.133 4.113a.24.24 0 01.121.197v8.24a.23.23 0 01-.106.198L9.296 19.01a.22.22 0 01-.213 0l-1.836-1.092a.19.19 0 00-.182 0c-.507.287-.602.32-1.078.485-.117.041-.295.105.06.304l2.399 1.411c.226.13.482.199.744.198.26.001.517-.067.743-.197l7.149-4.114a1.51 1.51 0 00.743-1.305V6.46c0-.536-.28-1.039-.743-1.306L9.933 1.026A1.488 1.488 0 009.19.844z"/><path d="M11.102 6.732c-2.036 0-3.248.867-3.248 2.307 0 1.563 1.203 1.992 3.157 2.186 2.337.228 2.519.572 2.519 1.032 0 .798-.636 1.138-2.14 1.138-1.89 0-2.304-.472-2.443-1.411-.017-.101-.095-.183-.198-.183h-.926a.217.217 0 00-.212.213c0 1.203.654 2.625 3.78 2.625 2.261 0 3.566-.887 3.566-2.443 0-1.542-1.054-1.956-3.248-2.246-2.217-.294-2.429-.437-2.429-.956 0-.429.18-1.002 1.822-1.002 1.467 0 2.009.316 2.23 1.305.02.093.102.167.198.167h.926c.057 0 .112-.035.152-.076.038-.044.066-.093.06-.152-.143-1.703-1.279-2.504-3.566-2.504z"/></g></svg>