<svg width="75" height="37" xmlns="http://www.w3.org/2000/svg"><path d="M18.845 7.371c5.688.364 8.533 3.276 8.533 8.372 0 8.736-6.755 13.832-12.8 13.468h-6.4l-1.422 7.644H0L5.69 7.371h13.155zM16 12.831h-4.622l-1.777 10.92h4.266c3.2-.364 6.045-1.456 6.4-7.644 0-2.184-1.778-3.276-4.267-3.276zm10.325 16.653L31.911 0h6.633l-1.396 7.644h6.284c5.586.364 7.68 3.276 6.982 6.916l-2.443 14.924h-6.983l2.444-13.468c.349-1.82.349-2.912-2.095-2.912H36.1l-3.141 16.38h-6.634zM66.23 7.371c5.688.364 8.533 3.276 8.533 8.372 0 8.736-6.756 13.832-12.8 13.468h-6.4l-1.423 7.644h-6.755l5.689-29.484h13.155zm-2.845 5.46h-4.622l-1.778 10.92h4.267c3.2-.364 6.044-1.456 6.4-7.644 0-2.184-1.778-3.276-4.267-3.276z" fill="#8991C4"/></svg>