<?xml version="1.0" encoding="utf-8"?>
<!-- Generator: Adobe Illustrator 15.1.0, SVG Export Plug-In . SVG Version: 6.00 Build 0)  -->
<!DOCTYPE svg PUBLIC "-//W3C//DTD SVG 1.1//EN" "http://www.w3.org/Graphics/SVG/1.1/DTD/svg11.dtd">
<svg version="1.1" id="Warstwa_1" xmlns="http://www.w3.org/2000/svg" xmlns:xlink="http://www.w3.org/1999/xlink" x="0px" y="0px"
	 width="32px" height="32px" viewBox="0 0 32 32" enable-background="new 0 0 32 32" xml:space="preserve">
<g>
	<path fill="#53C1DE" d="M25.666,11.305C25.354,11.199,25.032,11.097,24.7,11c0.054-0.223,0.104-0.441,0.147-0.659
		c0.731-3.548,0.254-6.407-1.379-7.348c-1.564-0.902-4.125,0.039-6.71,2.288c-0.248,0.216-0.497,0.445-0.747,0.686
		c-0.166-0.158-0.332-0.313-0.496-0.459c-2.709-2.406-5.425-3.419-7.056-2.476C6.896,3.938,6.434,6.625,7.092,9.989
		c0.063,0.324,0.139,0.656,0.223,0.994c-0.385,0.108-0.756,0.226-1.11,0.349C3.027,12.438,1,14.174,1,15.975
		c0,1.859,2.177,3.724,5.484,4.855c0.262,0.09,0.533,0.172,0.813,0.252c-0.091,0.365-0.17,0.723-0.236,1.072
		c-0.627,3.305-0.137,5.928,1.422,6.828c1.611,0.928,4.314-0.025,6.947-2.326c0.207-0.184,0.416-0.375,0.625-0.578
		c0.271,0.262,0.543,0.508,0.811,0.74c2.55,2.193,5.068,3.08,6.626,2.178c1.608-0.934,2.133-3.75,1.452-7.182
		c-0.051-0.262-0.111-0.527-0.18-0.801c0.189-0.057,0.377-0.115,0.559-0.174C28.762,19.699,31,17.857,31,15.973
		C31,14.167,28.904,12.42,25.666,11.305z M17.604,6.25c2.213-1.927,4.283-2.688,5.228-2.146c1.005,0.58,1.396,2.916,0.765,5.979
		c-0.041,0.195-0.087,0.396-0.136,0.597c-1.245-0.287-2.597-0.501-4.012-0.634c-0.823-1.174-1.679-2.241-2.536-3.165
		C17.143,6.661,17.372,6.449,17.604,6.25z M9.857,17.512c0.269,0.521,0.552,1.037,0.851,1.553c0.304,0.525,0.619,1.039,0.942,1.541
		c-0.982-0.109-1.909-0.258-2.766-0.443C9.15,19.307,9.477,18.416,9.857,17.512z M9.855,14.499
		c-0.373-0.885-0.691-1.755-0.953-2.596c0.856-0.191,1.77-0.349,2.721-0.467c-0.314,0.491-0.623,0.995-0.92,1.511
		C10.406,13.46,10.124,13.979,9.855,14.499z M10.537,16.005c0.388-0.807,0.814-1.617,1.275-2.418l0,0
		c0.463-0.803,0.951-1.579,1.455-2.315c0.892-0.067,1.807-0.104,2.731-0.104c0.928,0,1.844,0.036,2.737,0.104
		c0.494,0.731,0.979,1.504,1.445,2.308c0.471,0.813,0.902,1.618,1.293,2.407c-0.39,0.802-0.82,1.617-1.289,2.427
		c-0.47,0.813-0.951,1.59-1.438,2.322c-0.892,0.063-1.812,0.098-2.748,0.098c-0.935,0-1.842-0.029-2.716-0.086
		c-0.51-0.742-1.001-1.521-1.467-2.326C11.354,17.621,10.925,16.811,10.537,16.005z M21.296,19.057
		c0.306-0.531,0.597-1.061,0.869-1.59c0.401,0.914,0.739,1.797,1.009,2.639c-0.869,0.199-1.809,0.357-2.799,0.479
		C20.688,20.088,20.994,19.58,21.296,19.057z M22.152,14.5c-0.271-0.517-0.56-1.038-0.861-1.562c-0.297-0.513-0.604-1.013-0.912-1.5
		c0.956,0.121,1.873,0.282,2.734,0.479C22.855,12.745,22.533,13.611,22.152,14.5z M16.014,7.797
		c0.592,0.641,1.184,1.356,1.766,2.132C17.193,9.901,16.6,9.887,16,9.887c-0.593,0-1.184,0.014-1.766,0.042
		C14.816,9.16,15.414,8.447,16.014,7.797z M9.104,4.143c1.004-0.582,3.224,0.246,5.563,2.323c0.148,0.134,0.3,0.272,0.45,0.416
		c-0.871,0.937-1.733,2.001-2.556,3.162c-1.41,0.131-2.762,0.341-4.002,0.622c-0.078-0.314-0.147-0.623-0.207-0.924
		C7.787,6.862,8.161,4.688,9.104,4.143z M7.641,19.85c-0.256-0.074-0.502-0.15-0.74-0.232c-1.463-0.5-2.672-1.148-3.5-1.859
		c-0.743-0.637-1.119-1.269-1.119-1.783c0-1.092,1.628-2.484,4.345-3.432c0.33-0.115,0.674-0.224,1.032-0.325
		c0.376,1.222,0.867,2.498,1.463,3.789C8.52,17.314,8.02,18.613,7.641,19.85z M14.585,25.689c-1.164,1.018-2.33,1.74-3.358,2.104
		c-0.922,0.326-1.658,0.336-2.104,0.078c-0.946-0.545-1.34-2.652-0.803-5.479c0.062-0.322,0.135-0.654,0.219-0.996
		c1.229,0.273,2.589,0.469,4.043,0.586c0.83,1.168,1.699,2.242,2.575,3.182C14.966,25.348,14.775,25.523,14.585,25.689z
		 M16.049,24.242c-0.607-0.656-1.213-1.381-1.804-2.16c0.573,0.021,1.159,0.033,1.755,0.033c0.611,0,1.215-0.014,1.811-0.039
		C17.227,22.869,16.637,23.596,16.049,24.242z M23.831,26.023c-0.179,0.965-0.537,1.605-0.981,1.863
		c-0.945,0.547-2.968-0.164-5.147-2.041c-0.25-0.215-0.502-0.445-0.754-0.688c0.845-0.926,1.688-2,2.515-3.193
		c1.45-0.129,2.82-0.338,4.063-0.625c0.063,0.246,0.115,0.488,0.164,0.725C23.986,23.582,24.029,24.953,23.831,26.023z
		 M24.919,19.623c-0.164,0.055-0.332,0.105-0.504,0.158c-0.379-1.203-0.892-2.48-1.519-3.8c0.599-1.289,1.09-2.551,1.459-3.745
		c0.308,0.089,0.604,0.183,0.893,0.282c2.775,0.955,4.47,2.368,4.47,3.456C29.718,17.135,27.889,18.639,24.919,19.623z"/>
	<path fill="#53C1DE" d="M16,13.295c1.479,0,2.68,1.199,2.68,2.68c0,1.48-1.201,2.679-2.68,2.679s-2.68-1.199-2.68-2.679
		C13.32,14.496,14.52,13.295,16,13.295"/>
</g>
</svg>
