<svg width="55" height="52" xmlns="http://www.w3.org/2000/svg"><g fill="none"><path d="M27.4.095a3.58 3.58 0 00-1.375.365L7.412 9.343a3.533 3.533 0 00-1.923 2.394L.931 31.678a3.504 3.504 0 00.485 2.719c.063.097.13.191.2.281l12.876 16a3.566 3.566 0 002.774 1.313h20.642a3.566 3.566 0 002.78-1.324L53.554 34.66a3.504 3.504 0 00.686-2.986l-4.59-19.962a3.533 3.533 0 00-1.924-2.394L29.127.46A3.58 3.58 0 0027.4.095z" fill="#326CE5"/><path d="M27.587 6.883a1.179 1.179 0 00-1.095 1.237v.314c.03.356.082.71.153 1.059.102.668.14 1.346.11 2.022a1.213 1.213 0 01-.365.576l-.026.475c-.677.056-1.348.16-2.01.31a14.317 14.317 0 00-7.278 4.153l-.401-.285a.88.88 0 01-.66-.065 10.394 10.394 0 01-1.5-1.354 9.273 9.273 0 00-.73-.778l-.249-.197a1.325 1.325 0 00-.774-.292 1.073 1.073 0 00-.886.394 1.179 1.179 0 00.273 1.643l.23.182c.297.198.606.378.924.54.592.33 1.15.716 1.667 1.154.133.189.21.411.223.642l.365.317a14.401 14.401 0 00-2.27 10.044l-.467.135a1.544 1.544 0 01-.478.482 10.38 10.38 0 01-1.997.328 9.314 9.314 0 00-1.069.084l-.292.073H8.95a1.117 1.117 0 10.496 2.168h.022l.303-.037c.34-.102.674-.224 1-.365a10.405 10.405 0 011.941-.569c.23.014.452.093.639.226l.485-.084a14.485 14.485 0 006.42 8.03l-.204.426c.094.195.128.414.098.628-.276.64-.614 1.25-1.007 1.825a9.325 9.325 0 00-.599.89l-.146.3a1.117 1.117 0 102.011.952l.139-.285c.127-.334.234-.675.321-1.021.292-.73.456-1.515.861-2a.901.901 0 01.478-.234l.256-.456a14.405 14.405 0 0010.273.025l.22.427a.88.88 0 01.569.343c.314.598.57 1.225.762 1.873.089.346.197.687.325 1.022l.139.284a1.117 1.117 0 102.01-.952l-.145-.3a9.28 9.28 0 00-.599-.886 10.401 10.401 0 01-.985-1.767.872.872 0 01.113-.668 3.825 3.825 0 01-.186-.449 14.485 14.485 0 006.394-8.058l.474.084a.88.88 0 01.624-.23c.664.127 1.315.317 1.942.57.325.148.66.277 1 .386.08.022.197.037.292.063h.022a1.117 1.117 0 10.492-2.168l-.328-.073a9.314 9.314 0 00-1.07-.084 10.39 10.39 0 01-1.996-.329 1.248 1.248 0 01-.481-.481l-.45-.132a14.46 14.46 0 00-2.317-10.018l.394-.365a.88.88 0 01.208-.631 10.39 10.39 0 011.657-1.164 9.48 9.48 0 00.924-.54l.244-.197a1.12 1.12 0 10-1.387-1.741l-.248.197a9.314 9.314 0 00-.73.777c-.441.505-.93.965-1.46 1.376a1.24 1.24 0 01-.675.073l-.423.303a14.598 14.598 0 00-9.252-4.463c0-.146-.021-.416-.025-.497a.88.88 0 01-.365-.555c-.023-.675.02-1.35.128-2.018.071-.35.122-.703.153-1.058V8.13a1.179 1.179 0 00-1.095-1.237l-.018-.01zm-1.394 8.635l-.329 5.84h-.025a.982.982 0 01-1.559.751l-4.788-3.394a11.467 11.467 0 015.522-3.007c.39-.084.785-.147 1.182-.19h-.003zm2.788 0a11.562 11.562 0 016.668 3.215l-4.745 3.372a.982.982 0 01-1.595-.751l-.328-5.836zm-11.233 5.398l4.38 3.905v.025a.982.982 0 01-.388 1.686v.019l-5.62 1.616a11.463 11.463 0 011.628-7.255v.004zm19.645 0a11.678 11.678 0 011.675 7.233l-5.627-1.62v-.022a.982.982 0 01-.387-1.686l4.343-3.89-.004-.015zM26.69 25.13h1.788l1.095 1.387-.401 1.737-1.606.774-1.613-.774-.38-1.74 1.117-1.384zm5.74 4.744a.978.978 0 01.227 0l5.795.978a11.478 11.478 0 01-4.638 5.84l-2.24-5.43a.985.985 0 01.85-1.37l.007-.018zm-9.733.026a.982.982 0 01.887 1.368v.022l-2.23 5.372a11.525 11.525 0 01-4.605-5.773l5.744-.978a.993.993 0 01.194 0l.01-.011zm4.854 2.357a.989.989 0 01.898.515h.022l2.832 5.11c-.372.124-.75.23-1.131.317a11.51 11.51 0 01-6.281-.325l2.825-5.11c.172-.3.49-.486.835-.492v-.015z" stroke="#FFF" stroke-width=".845" fill="#FFF"/></g></svg>