<svg width="70" height="51" xmlns="http://www.w3.org/2000/svg"><path d="M56.017 14.637l-.898-.719-.718.898c-1.437 1.617-1.975 4.49-1.796 6.645.18 1.617.719 3.233 1.616 4.49-.718.36-1.616.718-2.334 1.078-1.617.538-3.233.718-4.85.718H1.629c-.736 0-1.164.36-1.284 1.077-.36 3.413.18 7.005 1.616 10.237l.719 1.257v.18c4.31 7.184 12.032 10.416 20.473 10.416 16.163 0 29.453-7.004 35.739-22.09 4.13.18 8.261-.897 10.237-4.848l.538-.898-.898-.54c-2.334-1.436-5.567-1.616-8.26-.897-.36-2.874-2.156-5.208-4.49-7.004zm-18.677 4.13h-7.004v7.004h7.004v-7.004zm0-8.8h-7.004v7.004h7.004V9.967zm0-8.98h-7.004v7.005h7.004V.988zm8.62 17.78h-7.004v7.004h7.004v-7.004zm-26.04 0h-7.005v7.004h7.004v-7.004zm8.8 0h-7.005v7.004h7.004v-7.004zm-17.421 0H4.295v7.004h7.004v-7.004zm17.42-8.8h-7.004v7.004h7.004V9.967zm-8.8 0h-7.004v7.004h7.004V9.967z" fill="#2F93F2"/></svg>