<?xml version="1.0" encoding="utf-8"?>
<!-- Generator: Adobe Illustrator 15.1.0, SVG Export Plug-In . SVG Version: 6.00 Build 0)  -->
<!DOCTYPE svg PUBLIC "-//W3C//DTD SVG 1.1//EN" "http://www.w3.org/Graphics/SVG/1.1/DTD/svg11.dtd">
<svg version="1.1" id="Warstwa_1" xmlns="http://www.w3.org/2000/svg" xmlns:xlink="http://www.w3.org/1999/xlink" x="0px" y="0px"
	 width="32px" height="32px" viewBox="0 0 32 32" enable-background="new 0 0 32 32" xml:space="preserve">
<g>
	<polygon fill="#007ACC" points="1,16 1,31 16,31 31,31 31,16 31,1 16,1 1,1 	"/>
	<path fill="#FFFFFF" d="M7.634,16.1l-0.01,1.229h1.953h1.952v5.548v5.547h1.381h1.381v-5.547v-5.548h1.952h1.952v-1.205
		c0-0.667-0.014-1.224-0.032-1.238c-0.015-0.019-2.392-0.028-5.272-0.023l-5.242,0.014L7.634,16.1z"/>
	<path fill="#FFFFFF" d="M25.207,14.841c0.762,0.19,1.343,0.528,1.876,1.081c0.276,0.295,0.687,0.833,0.72,0.962
		c0.01,0.038-1.296,0.914-2.086,1.404c-0.027,0.021-0.144-0.104-0.271-0.295c-0.385-0.563-0.791-0.806-1.409-0.849
		c-0.909-0.062-1.495,0.414-1.49,1.211c0,0.232,0.033,0.371,0.129,0.562c0.2,0.414,0.571,0.662,1.738,1.167
		c2.147,0.924,3.065,1.533,3.638,2.398c0.639,0.968,0.781,2.511,0.348,3.658c-0.477,1.247-1.656,2.096-3.318,2.375
		c-0.514,0.092-1.732,0.076-2.285-0.022c-1.205-0.214-2.348-0.81-3.053-1.591c-0.276-0.306-0.814-1.101-0.781-1.157
		c0.016-0.019,0.139-0.095,0.275-0.176c0.135-0.076,0.64-0.366,1.115-0.644l0.861-0.5l0.182,0.268
		c0.252,0.386,0.805,0.914,1.139,1.09c0.957,0.505,2.271,0.434,2.919-0.147c0.276-0.252,0.39-0.514,0.39-0.898
		c0-0.349-0.042-0.5-0.224-0.763c-0.233-0.334-0.709-0.613-2.062-1.199c-1.549-0.668-2.215-1.081-2.824-1.738
		c-0.353-0.381-0.687-0.99-0.823-1.5c-0.114-0.424-0.144-1.485-0.054-1.914c0.319-1.496,1.449-2.539,3.076-2.848
		C23.46,14.674,24.688,14.712,25.207,14.841z"/>
</g>
</svg>
